<svg width="54" height="52" viewBox="0 0 54 52" fill="none" xmlns="http://www.w3.org/2000/svg">
<g clip-path="url(#clip0)">
<path d="M52.4402 18.8158H46.5164V3.30078C46.5164 1.48078 45.0065 0 43.1505 0H17.0709C16.642 0 16.2942 0.341047 16.2942 0.761719C16.2942 1.18239 16.642 1.52344 17.0709 1.52344H43.1505C44.1498 1.52344 44.9629 2.3208 44.9629 3.30078V18.8158H43.934C43.1631 18.8158 42.5359 19.4308 42.5359 20.1869V23.6615C42.5359 24.4176 43.1631 25.0326 43.934 25.0326H45.037V30.9011H9.79969V25.0326H10.9026C11.6736 25.0326 12.3008 24.4176 12.3008 23.6615V20.1869C12.3008 19.4308 11.6736 18.8158 10.9026 18.8158H9.79969V3.30078C9.79969 2.3208 10.6128 1.52344 11.6121 1.52344H13.964C14.393 1.52344 14.7407 1.18239 14.7407 0.761719C14.7407 0.341047 14.393 0 13.964 0H11.6121C9.75619 0 8.24622 1.48078 8.24622 3.30078V18.8158H2.39641C1.62548 18.8158 0.998291 19.4308 0.998291 20.1869V23.6615C0.998291 24.4176 1.62548 25.0326 2.39641 25.0326H3.49936V50.6289C3.49936 51.3849 4.12655 52 4.89748 52H8.40147C9.1724 52 9.79958 51.3849 9.79958 50.6289V40.8891H32.4263C32.8553 40.8891 33.203 40.548 33.203 40.1273C33.203 39.7067 32.8553 39.3656 32.4263 39.3656H9.79969V32.4244H45.0371V39.3656H35.5333C35.1042 39.3656 34.7566 39.7067 34.7566 40.1273C34.7566 40.548 35.1042 40.8891 35.5333 40.8891H45.0371V50.6289C45.0371 51.3849 45.6642 52 46.4352 52H49.9392C50.7101 52 51.3373 51.3849 51.3373 50.6289V25.0326H52.4402C53.2112 25.0326 53.8383 24.4176 53.8383 23.6615V20.1869C53.8383 19.4308 53.2112 18.8158 52.4402 18.8158ZM2.55175 20.3392H10.7473V23.5092H2.55175V20.3392ZM5.05293 50.4766V25.0326H8.24622V50.4766H5.05293ZM49.7837 50.4766H46.5904V25.0326H49.7837V50.4766ZM52.2849 23.5092H44.0893V20.3392H52.2849V23.5092Z" fill="white"/>
</g>
<defs>
<clipPath id="clip0">
<rect width="53.0248" height="52" fill="white" transform="translate(0.90657)"/>
</clipPath>
</defs>
</svg>
