<svg width="66" height="66" viewBox="0 0 66 66" fill="none" xmlns="http://www.w3.org/2000/svg">
<g clip-path="url(#clip0)">
<path d="M48.6404 63.0952L43.4151 38.9939C44.9808 38.062 46.3194 36.7655 47.3366 35.1666C49.1176 32.367 49.655 28.9211 48.8112 25.7123C47.0066 18.85 43.8959 7.07507 43.3367 5.31384C42.5807 2.93283 40.5088 1.26042 37.3449 0.477064C35.2353 -0.0452587 33.323 -0.00555597 33.0002 0.00540096C32.6396 -0.00697392 30.3106 -0.0550555 27.9301 0.677769C27.4199 0.834905 27.1335 1.37592 27.2906 1.88625C27.4477 2.39659 27.9885 2.6825 28.4991 2.52575C30.7013 1.84771 32.9338 1.93794 32.9551 1.93859C32.9843 1.93988 33.0146 1.93988 33.0439 1.93872C33.115 1.93537 40.152 1.67317 41.4937 5.89894C42.0402 7.61982 45.1412 19.3593 46.9411 26.2041C47.6484 28.8937 47.1979 31.7822 45.7051 34.1287C44.2058 36.4855 41.8735 38.0583 39.138 38.5574C37.7039 38.8192 28.2961 38.8192 26.862 38.5574C24.1264 38.0583 21.7942 36.4855 20.2949 34.1287C18.8021 31.7822 18.3516 28.8937 19.0589 26.2041C20.8591 19.3583 23.9607 7.61737 24.5063 5.89907C24.7107 5.25519 25.0578 4.68014 25.5381 4.18966C25.9117 3.80823 25.9054 3.19619 25.5238 2.82249C25.1424 2.44905 24.5302 2.45524 24.1567 2.8368C23.4626 3.54552 22.9602 4.37889 22.6633 5.31384C22.1329 6.98445 19.3935 17.3286 17.1888 25.7123C16.345 28.9211 16.8826 32.367 18.6634 35.1666C19.69 36.7802 21.0441 38.0856 22.6285 39.0193L17.4087 63.0954C17.4076 63.1004 17.4066 63.1056 17.4055 63.1106C17.2791 63.7433 17.4064 64.3871 17.7644 64.9239C18.1222 65.4607 18.6678 65.826 19.3003 65.9524C19.4609 65.9845 19.621 66 19.7788 66C20.867 66 21.8453 65.2639 22.1151 64.1775L24.9394 53.3668L32.8688 49.6323L41.1534 53.5341L43.9311 64.1661C44.2033 65.2627 45.182 66 46.2704 66C46.4281 66 46.5882 65.9845 46.7486 65.9524C47.3812 65.826 47.9267 65.4607 48.2847 64.9239C48.6426 64.387 48.77 63.7431 48.6436 63.1105C48.6426 63.1054 48.6415 63.1004 48.6404 63.0952ZM33.0001 40.6834C34.7497 40.6834 36.4987 40.6549 37.7738 40.598L38.8404 44.6803L32.8675 47.4941L27.1742 44.8126L28.2748 40.6C29.5455 40.6556 31.2723 40.6834 33.0001 40.6834ZM20.2414 63.7001C20.1793 63.9504 19.9327 64.1072 19.6795 64.0564C19.5094 64.0223 19.4145 63.9133 19.3733 63.8513C19.3324 63.7899 19.2691 63.6627 19.3006 63.4954L24.4208 39.8787C25.0319 40.1099 25.6676 40.2916 26.3229 40.422L20.2414 63.7001ZM25.5762 50.9293L26.6769 46.7159L30.5988 48.563L25.5762 50.9293ZM35.1378 48.5635L39.3381 46.5854L40.5168 51.0968L35.1378 48.5635ZM46.676 63.8513C46.6347 63.9133 46.5399 64.0223 46.3696 64.0564C46.1172 64.1074 45.8699 63.9505 45.8048 63.6887L39.7239 40.4129C40.379 40.2798 41.014 40.095 41.6246 39.861L46.7487 63.4954C46.7801 63.6627 46.7168 63.79 46.676 63.8513Z" fill="#2B2B29"/>
<path d="M37.3626 34.7439C36.5666 34.9265 34.6708 35.061 32.7624 35.071C30.8439 35.061 28.9481 34.9265 28.1521 34.7439C26.0936 34.2716 24.4219 33.1256 23.445 31.517C23.2612 31.2143 23.376 30.9422 23.4339 30.8392C23.4919 30.7362 23.665 30.4964 24.0195 30.4964H24.7757C25.3096 30.4964 25.7424 30.0636 25.7424 29.5297C25.7424 28.9957 25.3096 28.5629 24.7757 28.5629H24.0195C23.0655 28.5629 22.2166 29.0594 21.7487 29.8911C21.2809 30.7225 21.2972 31.7056 21.7923 32.5206C23.0427 34.5794 25.1477 36.0382 27.7195 36.6283C28.8712 36.8926 31.1503 36.9961 32.7621 37.0045C34.3639 36.9961 36.643 36.8926 37.7947 36.6283C40.3666 36.0382 42.4716 34.5794 43.7218 32.5206C44.217 31.7054 44.2332 30.7224 43.7654 29.891C43.2975 29.0593 42.4487 28.5627 41.4946 28.5627H28.6427C28.1088 28.5627 27.6759 28.9956 27.6759 29.5295C27.6759 30.0635 28.1088 30.4963 28.6427 30.4963H41.4946C41.8492 30.4963 42.0224 30.7359 42.0802 30.8391C42.1381 30.9421 42.253 31.2142 42.0692 31.5169C41.0927 33.1256 39.4211 34.2716 37.3626 34.7439Z" fill="#2B2B29"/>
</g>
<defs>
<clipPath id="clip0">
<rect width="66" height="66" fill="white"/>
</clipPath>
</defs>
</svg>
