<svg width="80" height="80" viewBox="0 0 80 80" fill="none" xmlns="http://www.w3.org/2000/svg">
<g clip-path="url(#clip0)">
<path d="M79.4686 24.0793C79.0678 23.6272 78.4916 23.3679 77.8875 23.3679H71.24C70.1771 23.3679 69.2759 24.1632 69.1439 25.2176L68.1272 33.323H20.1755C19.5271 33.323 19.0018 33.8485 19.0018 34.4967C19.0018 35.1448 19.5271 35.6703 20.1755 35.6703H67.8328L67.1712 40.9448H2.34728V35.6703H15.4809C16.1292 35.6703 16.6545 35.1448 16.6545 34.4967C16.6545 33.8485 16.1292 33.323 15.4809 33.323H2.11255C0.947673 33.323 0 34.2707 0 35.4356V50.1078C0 51.2726 0.947673 52.2203 2.11255 52.2203H6.48521V54.5196C6.48521 55.6844 7.43288 56.6321 8.59776 56.6321H17.9457C19.1106 56.6321 20.0583 55.6844 20.0583 54.5196V52.2203H40.7284C41.3767 52.2203 41.902 51.6948 41.902 51.0467C41.902 50.3985 41.3767 49.873 40.7284 49.873H2.34728V43.2921H67.3782C68.4409 43.2921 69.3421 42.497 69.4743 41.4424L71.4472 25.7152H77.6227L74.6941 49.873H45.4229C44.7746 49.873 44.2493 50.3985 44.2493 51.0467C44.2493 51.6948 44.7746 52.2203 45.4229 52.2203H57.6175V54.5196C57.6175 55.6844 58.5652 56.6321 59.73 56.6321H69.078C70.2428 56.6321 71.1905 55.6844 71.1905 54.5196V52.2203H74.902C75.9691 52.2203 76.8709 51.4215 76.9992 50.3621L79.9848 25.7346C80.0574 25.1348 79.8693 24.5315 79.4686 24.0793ZM17.7111 54.2848H8.83249V52.2203H17.711V54.2848H17.7111ZM68.8432 54.2848H59.9648V52.2203H68.8432V54.2848Z" fill="#2B2B29"/>
</g>
<defs>
<clipPath id="clip0">
<rect width="80" height="80" fill="white"/>
</clipPath>
</defs>
</svg>
