<svg width="62" height="62" viewBox="0 0 62 62" fill="none" xmlns="http://www.w3.org/2000/svg">
<g clip-path="url(#clip0)">
<path d="M46.6805 59.8993L36.0253 23.5521L36.0295 20.5671C36.0295 19.6626 35.2937 18.9268 34.3892 18.9268H34.105V15.5182H44.4951C45.3996 15.5182 46.1354 14.7824 46.1354 13.8779V1.64032C46.1354 0.735837 45.3996 0 44.4951 0H26.3276C25.8243 0 25.4163 0.408015 25.4163 0.911291C25.4163 1.41457 25.8243 1.82258 26.3276 1.82258H44.3128V13.6956H17.8628V1.82258H22.6823C23.1856 1.82258 23.5936 1.41457 23.5936 0.911291C23.5936 0.408015 23.1856 0 22.6823 0H17.6805C16.776 0 16.0402 0.735837 16.0402 1.64032V13.8779C16.0402 14.7824 16.776 15.5182 17.6805 15.5182H19.5047V21.1938C19.5047 21.6971 19.9127 22.1051 20.416 22.1051C20.9192 22.1051 21.3272 21.6971 21.3272 21.1938V15.5182H28.0706V18.9268H27.5534C26.6489 18.9268 25.9131 19.6626 25.9131 20.5671L25.9168 23.5404L17.8258 51.3008C17.685 51.7841 17.9625 52.2899 18.4457 52.4307C18.5309 52.4556 18.6167 52.4674 18.7011 52.4674C19.0959 52.4674 19.4596 52.209 19.5756 51.8109L27.5706 24.3796H29.7287L18.7999 60.1775H17.137L18.6009 55.1549C18.7417 54.6716 18.4642 54.1658 17.981 54.025C17.4979 53.8839 16.9919 54.1617 16.8511 54.6449L15.3193 59.9009C15.1735 60.4012 15.2691 60.9273 15.582 61.3442C15.8947 61.7611 16.373 62.0002 16.8941 62.0002H18.9348C19.6589 62.0002 20.2886 61.5355 20.5031 60.841L28.2969 35.3117V60.3599C28.2969 61.2644 29.0328 62.0002 29.9372 62.0002H32.0629C32.9674 62.0002 33.7032 61.2644 33.7032 60.3599V35.1912L41.6194 60.8434C41.833 61.5352 42.4628 62 43.1868 62H45.1061C45.6273 62 46.1055 61.7609 46.4183 61.344C46.7309 60.9271 46.8266 60.401 46.6805 59.8993ZM29.8931 15.5182H32.2823V18.9268H29.8931V15.5182ZM27.7357 20.7493H34.2068V22.5569H27.7357V20.7493ZM31.8806 60.1774H30.1195V29.346C30.1195 29.3447 30.1193 29.3435 30.1193 29.3421L31.0039 26.4445L31.8806 29.2851V60.1774ZM43.3213 60.1774L33.6633 28.881C33.6625 28.8783 33.6618 28.8758 33.6609 28.8731L32.2742 24.3795H34.3686L44.8627 60.1774H43.3213Z" fill="#2B2B29"/>
</g>
<defs>
<clipPath id="clip0">
<rect width="62" height="62" fill="white"/>
</clipPath>
</defs>
</svg>
