<svg width="82" height="82" viewBox="0 0 82 82" fill="none" xmlns="http://www.w3.org/2000/svg">
<g clip-path="url(#clip0)">
<path d="M79.8379 13.7988H58.8377C57.6455 13.7988 56.6756 14.7687 56.6756 15.9609V31.3319H22.5104C21.8471 31.3319 21.3093 31.8697 21.3093 32.5331C21.3093 33.1965 21.8471 33.7343 22.5104 33.7343H56.6756V39.6455H7.83148V33.7343H17.7058C18.3691 33.7343 18.9069 33.1965 18.9069 32.5331C18.9069 31.8697 18.3691 31.3319 17.7058 31.3319H7.83148V28.386C7.83148 27.1938 6.86157 26.2239 5.66937 26.2239H2.16211C0.969906 26.2239 0 27.1938 0 28.386V66.0391C0 67.2313 0.969906 68.2012 2.16211 68.2012H62.9427C63.6061 68.2012 64.1439 67.6634 64.1439 67C64.1439 66.3366 63.6061 65.7988 62.9427 65.7988H2.40234V62.8555H57.8768H79.5977V65.7988H67.7474C67.084 65.7988 66.5462 66.3366 66.5462 67C66.5462 67.6634 67.084 68.2012 67.7474 68.2012H79.8379C81.0301 68.2012 82 67.2313 82 66.0391V15.9609C82 14.7689 81.0301 13.7988 79.8379 13.7988ZM66.4395 16.2012H72.2359V16.723C72.2359 17.8452 71.3229 18.7581 70.2006 18.7581H68.4748C67.3526 18.7581 66.4397 17.845 66.4397 16.723V16.2012H66.4395ZM64.0372 16.2012V16.723C64.0372 19.1698 66.0279 21.1604 68.4746 21.1604H70.2006C72.6475 21.1604 74.6383 19.1697 74.6383 16.723V16.2012H79.5977V26.2239H59.078V16.2012H64.0372ZM66.4395 28.6263H72.2359V29.148C72.2359 30.2703 71.3229 31.1833 70.2006 31.1833H68.4748C67.3526 31.1833 66.4397 30.2703 66.4397 29.148V28.6263H66.4395ZM59.078 28.6263H64.0372V29.148C64.0372 31.5949 66.0279 33.5857 68.4746 33.5857H70.2006C72.6475 33.5857 74.6383 31.5949 74.6383 29.148V28.6263H79.5977V39.6455H59.078V28.6263ZM32.9177 42.0478V42.5695C32.9177 43.6917 32.0047 44.6047 30.8824 44.6047H29.1564C28.0342 44.6047 27.1213 43.6917 27.1213 42.5695V42.0478H32.9177ZM2.40234 28.6263H5.42914V39.6455H2.40234V28.6263ZM2.40234 42.0478H24.7188V42.5695C24.7188 45.0163 26.7096 47.0071 29.1563 47.0071H30.8823C33.3292 47.0071 35.3199 45.0163 35.3199 42.5695V42.0478H56.6755V60.4531H2.40234V42.0478ZM59.078 60.4531V42.0478H79.5977V60.4531H59.078Z" fill="#2B2B29"/>
<path d="M73.1394 46.8005H65.2475C64.0553 46.8005 63.0854 47.7704 63.0854 48.9626V51.7449C63.0854 52.9371 64.0553 53.907 65.2475 53.907H73.1394C74.3316 53.907 75.3015 52.9371 75.3015 51.7449V48.9626C75.3015 47.7706 74.3316 46.8005 73.1394 46.8005ZM72.8991 51.5046H65.4877V49.2029H72.8991V51.5046Z" fill="#2B2B29"/>
</g>
<defs>
<clipPath id="clip0">
<rect width="82" height="82" fill="white"/>
</clipPath>
</defs>
</svg>
