<svg width="60" height="60" viewBox="0 0 60 60" fill="none" xmlns="http://www.w3.org/2000/svg">
<path d="M48.4318 11.568C43.5084 6.64472 36.9625 3.93335 29.9999 3.93335C23.0374 3.93335 16.4914 6.64472 11.5681 11.568C6.64471 16.4914 3.93323 23.0373 3.93323 30C3.93323 36.9627 6.64471 43.5085 11.568 48.4319C16.4914 53.3552 23.0372 56.0666 29.9998 56.0666C36.9624 56.0666 43.5083 53.3552 48.4317 48.4319C53.3551 43.5085 56.0664 36.9627 56.0664 30C56.0664 23.0373 53.3552 16.4914 48.4318 11.568ZM53.1289 37.4825H35.3852V34.9504H53.8014C53.6225 35.8121 53.3967 36.6567 53.1289 37.4825ZM35.3852 33.1926V27.4155H54.1713C54.2615 28.265 54.3087 29.127 54.3087 30C54.3087 31.0821 54.2367 32.1475 54.099 33.1926H35.3852ZM52.7237 21.3678H29.3324C28.8469 21.3678 28.4535 21.7613 28.4535 22.2467C28.4535 22.7321 28.8469 23.1256 29.3324 23.1256H53.3173C53.5615 23.9525 53.7639 24.7969 53.9198 25.6577H21.792V24.6181H21.8002L21.8067 23.1256H25.8168C26.3023 23.1256 26.6957 22.7321 26.6957 22.2467C26.6957 21.7613 26.3023 21.3678 25.8168 21.3678H21.8142L21.8755 7.08921C24.4173 6.18511 27.1518 5.69116 29.9999 5.69116C40.3651 5.69116 49.2343 12.2129 52.7237 21.3678ZM20.1146 7.79386L20.0342 26.5365C20.0342 27.0219 20.4276 27.4154 20.9131 27.4154H33.6274V41.9739H8.85135C6.841 38.4373 5.69104 34.3507 5.69104 30C5.69104 20.1141 11.6234 11.5887 20.1146 7.79386ZM29.9999 54.3087C23.736 54.3087 18.0182 51.9268 13.7037 48.0218H24.6472C25.1327 48.0218 25.5261 47.6282 25.5261 47.1428C25.5261 46.6575 25.1327 46.2639 24.6472 46.2639H11.9496C11.2299 45.466 10.5628 44.62 9.95245 43.7319H33.6274V46.2639H28.1628C27.6773 46.2639 27.2839 46.6575 27.2839 47.1428C27.2839 47.6282 27.6773 48.0218 28.1628 48.0218H34.5063C34.9918 48.0218 35.3852 47.6282 35.3852 47.1428V39.2403H52.4825C48.8382 48.0745 40.1341 54.3087 29.9999 54.3087Z" fill="#2B2B29"/>
<path d="M51.2133 8.78672C45.547 3.12059 38.0133 0 30 0C21.9867 0 14.453 3.12059 8.78672 8.78672C3.12059 14.453 0 21.9867 0 30C0 38.0133 3.12059 45.547 8.78672 51.2133C14.453 56.8794 21.9867 60 30 60C38.0133 60 45.547 56.8794 51.2133 51.2133C56.8794 45.547 60 38.0133 60 30C60 21.9867 56.8794 14.453 51.2133 8.78672ZM49.9703 49.9703C44.636 55.3045 37.5438 58.2422 30 58.2422C22.4562 58.2422 15.364 55.3045 10.0297 49.9703C4.69547 44.636 1.75781 37.5438 1.75781 30C1.75781 22.4562 4.69547 15.364 10.0297 10.0297C15.364 4.69547 22.4562 1.75781 30 1.75781C37.5438 1.75781 44.636 4.69547 49.9703 10.0297C55.3045 15.364 58.2422 22.4562 58.2422 30C58.2422 37.5438 55.3045 44.636 49.9703 49.9703Z" fill="#2B2B29"/>
</svg>
