<svg width="70" height="85" viewBox="0 0 70 85" fill="none" xmlns="http://www.w3.org/2000/svg">
<path d="M1.56626 24.7723L5.06075 24.1023V19.8631C5.06075 18.6326 5.89484 17.6315 6.92011 17.6315H45.9949C46.5653 17.6315 47.0278 18.1866 47.0278 18.8713C47.0278 19.556 46.5653 20.1111 45.9949 20.1111H35.9008V39.8792H59.7789L61.6617 25.7337C61.7559 25.0252 62.121 24.4495 62.6088 24.1293V20.1109H50.1266C49.5562 20.1109 49.0937 19.5558 49.0937 18.8711C49.0937 18.1864 49.5562 17.6313 50.1266 17.6313H62.8156C63.8408 17.6313 64.6749 18.6324 64.6749 19.8629V24.0514L68.4337 24.7721C69.4462 24.9662 70.1381 26.1126 69.9766 27.3277L67.2045 48.1543C67.0596 49.2435 66.2875 50.034 65.3684 50.034H65.1873V52.9792C65.1873 54.2097 64.3532 55.2108 63.3279 55.2108H60.7225L63.0928 65.3891C63.2508 66.0671 63.138 66.7778 62.7834 67.3386C62.4287 67.8997 61.8888 68.2214 61.3022 68.2214H59.1758C58.4096 68.2214 57.7113 67.644 57.4383 66.7847L53.7627 55.2108H28.3268C27.7562 55.2108 27.2938 54.6557 27.2938 53.971C27.2938 53.2864 27.7562 52.7313 28.3268 52.7313H63.1212V50.034H6.56077V52.7313H24.1946C24.7653 52.7313 25.2276 53.2864 25.2276 53.971C25.2276 54.6557 24.7653 55.2108 24.1946 55.2108H15.9731L12.2975 66.7847C12.0247 67.644 11.3264 68.2214 10.5602 68.2214H8.43376C7.84703 68.2214 7.30713 67.8997 6.95248 67.3388C6.59796 66.7779 6.48516 66.0673 6.64299 65.3891L9.01347 55.2108H6.35431C5.32904 55.2108 4.49495 54.2097 4.49495 52.9792V50.034H3.93715H3.92695C3.71154 50.034 3.49985 49.953 3.32273 49.7998C3.09989 49.6069 2.95017 49.3154 2.90679 48.9898L0.0234032 27.3276C-0.138157 26.1127 0.553936 24.9664 1.56626 24.7723ZM59.3178 65.7421H61.0296L58.5771 55.2111H55.9734L59.3178 65.7421ZM8.70592 65.7421H10.4179L13.7623 55.2111H11.1585L8.70592 65.7421ZM33.8348 20.1111H7.1267V23.9848C7.7447 24.2509 8.22758 24.9021 8.33831 25.7337L10.2211 39.8792H33.8348V20.1111ZM4.80802 47.5546H65.1921L67.9039 27.1818L63.6692 26.3698L61.7911 40.4793C61.6463 41.5683 60.874 42.359 59.9551 42.359H10.0449C9.12613 42.359 8.35402 41.5686 8.20871 40.4795L6.33062 26.3698L2.0961 27.1818L4.80802 47.5546Z" fill="#2B2B29"/>
</svg>
