<svg width="60" height="60" viewBox="0 0 60 60" fill="none" xmlns="http://www.w3.org/2000/svg">
<g clip-path="url(#clip0)">
<path d="M52.5653 0H18.7521C18.2659 0 17.8719 0.394061 17.8719 0.880125C17.8719 1.36619 18.2659 1.76025 18.7521 1.76025H52.3893V7.24132H39.5339C39.0479 7.24132 38.6538 7.63538 38.6538 8.12144C38.6538 8.6075 39.0479 9.00157 39.5339 9.00157H45.1755C43.1009 15.0383 40.6775 22.0372 38.356 28.6726C36.3731 23.0291 31.4146 9.25704 31.316 9.00157H36.0134C36.4996 9.00157 36.8936 8.6075 36.8936 8.12144C36.8936 7.63538 36.4996 7.24132 36.0134 7.24132H7.61062V1.76025H15.2316C15.7177 1.76025 16.1117 1.36619 16.1117 0.880125C16.1117 0.394061 15.7177 0 15.2316 0H7.4346C6.56104 0 5.85037 0.710672 5.85037 1.58422V7.41734C5.85037 8.29089 6.56104 9.00157 7.4346 9.00157H12.9642C13.7525 11.28 21.0404 32.1586 21.1714 32.5307C18.18 41.7 15.303 50.5202 14.461 53.1018C14.4389 53.1013 14.4169 53.1002 14.3947 53.1002C12.4924 53.1002 10.9448 54.6478 10.9448 56.5501C10.9448 58.4524 12.4924 60.0001 14.3947 60.0001C16.297 60.0001 17.8446 58.4524 17.8446 56.5501C17.8446 55.2905 17.1657 54.1869 16.155 53.5847C16.9306 51.2068 19.4186 43.5792 22.1332 35.2582C23.8505 40.1197 28.7179 53.3482 28.7179 53.3482C27.4489 53.8582 26.5501 55.1009 26.5501 56.5501C26.5501 58.4524 28.0977 60.0001 30 60.0001C31.9023 60.0001 33.4499 58.4524 33.4499 56.5501C33.4499 55.1079 32.5599 53.8702 31.3005 53.3555C31.3005 53.3555 36.4412 39.429 38.3555 33.9867C40.714 40.7176 43.1787 47.7918 45.2795 53.8458C44.4813 54.4782 43.9679 55.455 43.9679 56.5501C43.9679 58.4524 45.5156 60.0001 47.4179 60.0001C49.3201 60.0001 50.8677 58.4524 50.8677 56.5501C50.8677 54.6478 49.3201 53.1002 47.4179 53.1002C47.241 53.1002 47.0673 53.1137 46.8975 53.1395C46.0703 50.757 42.6987 41.053 39.2886 31.3296C42.7866 21.3509 46.2541 11.2779 47.0366 9.00168H52.5652C53.4387 9.00168 54.1494 8.29101 54.1494 7.41746V1.58422C54.1495 0.710672 53.439 0 52.5653 0V0ZM14.3947 58.2397C13.4631 58.2397 12.705 57.4817 12.705 56.55C12.705 55.6183 13.4631 54.8603 14.3947 54.8603C15.3264 54.8603 16.0844 55.6183 16.0844 56.55C16.0844 57.4817 15.3264 58.2397 14.3947 58.2397ZM49.1077 56.55C49.1077 57.4817 48.3497 58.2397 47.4181 58.2397C46.4865 58.2397 45.7284 57.4817 45.7284 56.55C45.7284 55.6183 46.4865 54.8603 47.4181 54.8603C48.3497 54.8603 49.1077 55.6183 49.1077 56.55ZM14.8266 9.00157H28.8511C27.8839 11.9583 25.0141 20.7522 22.0686 29.7805C19.6234 22.8229 17.0317 15.378 14.8266 9.00157ZM30 58.2397C29.0683 58.2397 28.3103 57.4817 28.3103 56.55C28.3103 55.6183 29.0683 54.8603 30 54.8603C30.9316 54.8603 31.6897 55.6183 31.6897 56.55C31.6898 57.4817 30.9317 58.2397 30 58.2397ZM30.0145 51.8615C28.7645 48.6564 26.0721 41.1431 23.0295 32.5106C25.8731 23.7947 28.785 14.8707 30.1155 10.7985C31.477 14.4639 34.2973 22.421 37.4245 31.331C34.2201 40.4612 31.3357 48.5241 30.0145 51.8615Z" fill="#2B2B29"/>
</g>
<defs>
<clipPath id="clip0">
<rect width="60" height="60" fill="white"/>
</clipPath>
</defs>
</svg>
