<svg width="0" height="0" class="hidden">
  <symbol fill="none" xmlns="http://www.w3.org/2000/svg" viewBox="0 0 54 52" id="chair-1">
    <g clip-path="url(#clip0)">
      <path d="M52.4402 18.8158H46.5164V3.30078C46.5164 1.48078 45.0065 0 43.1505 0H17.0709C16.642 0 16.2942 0.341047 16.2942 0.761719C16.2942 1.18239 16.642 1.52344 17.0709 1.52344H43.1505C44.1498 1.52344 44.9629 2.3208 44.9629 3.30078V18.8158H43.934C43.1631 18.8158 42.5359 19.4308 42.5359 20.1869V23.6615C42.5359 24.4176 43.1631 25.0326 43.934 25.0326H45.037V30.9011H9.79969V25.0326H10.9026C11.6736 25.0326 12.3008 24.4176 12.3008 23.6615V20.1869C12.3008 19.4308 11.6736 18.8158 10.9026 18.8158H9.79969V3.30078C9.79969 2.3208 10.6128 1.52344 11.6121 1.52344H13.964C14.393 1.52344 14.7407 1.18239 14.7407 0.761719C14.7407 0.341047 14.393 0 13.964 0H11.6121C9.75619 0 8.24622 1.48078 8.24622 3.30078V18.8158H2.39641C1.62548 18.8158 0.998291 19.4308 0.998291 20.1869V23.6615C0.998291 24.4176 1.62548 25.0326 2.39641 25.0326H3.49936V50.6289C3.49936 51.3849 4.12655 52 4.89748 52H8.40147C9.1724 52 9.79958 51.3849 9.79958 50.6289V40.8891H32.4263C32.8553 40.8891 33.203 40.548 33.203 40.1273C33.203 39.7067 32.8553 39.3656 32.4263 39.3656H9.79969V32.4244H45.0371V39.3656H35.5333C35.1042 39.3656 34.7566 39.7067 34.7566 40.1273C34.7566 40.548 35.1042 40.8891 35.5333 40.8891H45.0371V50.6289C45.0371 51.3849 45.6642 52 46.4352 52H49.9392C50.7101 52 51.3373 51.3849 51.3373 50.6289V25.0326H52.4402C53.2112 25.0326 53.8383 24.4176 53.8383 23.6615V20.1869C53.8383 19.4308 53.2112 18.8158 52.4402 18.8158ZM2.55175 20.3392H10.7473V23.5092H2.55175V20.3392ZM5.05293 50.4766V25.0326H8.24622V50.4766H5.05293ZM49.7837 50.4766H46.5904V25.0326H49.7837V50.4766ZM52.2849 23.5092H44.0893V20.3392H52.2849V23.5092Z" fill="white"></path>
    </g>
    <defs>
      <clipPath id="clip0">
        <rect width="53.0248" height="52" fill="white" transform="translate(0.90657)"></rect>
      </clipPath>
    </defs>
  </symbol>

  <symbol fill="none" xmlns="http://www.w3.org/2000/svg" viewBox="0 0 66 66" id="chair-2">
    <g clip-path="url(#clip0)">
      <path d="M48.6404 63.0952L43.4151 38.9939C44.9808 38.062 46.3194 36.7655 47.3366 35.1666C49.1176 32.367 49.655 28.9211 48.8112 25.7123C47.0066 18.85 43.8959 7.07507 43.3367 5.31384C42.5807 2.93283 40.5088 1.26042 37.3449 0.477064C35.2353 -0.0452587 33.323 -0.00555597 33.0002 0.00540096C32.6396 -0.00697392 30.3106 -0.0550555 27.9301 0.677769C27.4199 0.834905 27.1335 1.37592 27.2906 1.88625C27.4477 2.39659 27.9885 2.6825 28.4991 2.52575C30.7013 1.84771 32.9338 1.93794 32.9551 1.93859C32.9843 1.93988 33.0146 1.93988 33.0439 1.93872C33.115 1.93537 40.152 1.67317 41.4937 5.89894C42.0402 7.61982 45.1412 19.3593 46.9411 26.2041C47.6484 28.8937 47.1979 31.7822 45.7051 34.1287C44.2058 36.4855 41.8735 38.0583 39.138 38.5574C37.7039 38.8192 28.2961 38.8192 26.862 38.5574C24.1264 38.0583 21.7942 36.4855 20.2949 34.1287C18.8021 31.7822 18.3516 28.8937 19.0589 26.2041C20.8591 19.3583 23.9607 7.61737 24.5063 5.89907C24.7107 5.25519 25.0578 4.68014 25.5381 4.18966C25.9117 3.80823 25.9054 3.19619 25.5238 2.82249C25.1424 2.44905 24.5302 2.45524 24.1567 2.8368C23.4626 3.54552 22.9602 4.37889 22.6633 5.31384C22.1329 6.98445 19.3935 17.3286 17.1888 25.7123C16.345 28.9211 16.8826 32.367 18.6634 35.1666C19.69 36.7802 21.0441 38.0856 22.6285 39.0193L17.4087 63.0954C17.4076 63.1004 17.4066 63.1056 17.4055 63.1106C17.2791 63.7433 17.4064 64.3871 17.7644 64.9239C18.1222 65.4607 18.6678 65.826 19.3003 65.9524C19.4609 65.9845 19.621 66 19.7788 66C20.867 66 21.8453 65.2639 22.1151 64.1775L24.9394 53.3668L32.8688 49.6323L41.1534 53.5341L43.9311 64.1661C44.2033 65.2627 45.182 66 46.2704 66C46.4281 66 46.5882 65.9845 46.7486 65.9524C47.3812 65.826 47.9267 65.4607 48.2847 64.9239C48.6426 64.387 48.77 63.7431 48.6436 63.1105C48.6426 63.1054 48.6415 63.1004 48.6404 63.0952ZM33.0001 40.6834C34.7497 40.6834 36.4987 40.6549 37.7738 40.598L38.8404 44.6803L32.8675 47.4941L27.1742 44.8126L28.2748 40.6C29.5455 40.6556 31.2723 40.6834 33.0001 40.6834ZM20.2414 63.7001C20.1793 63.9504 19.9327 64.1072 19.6795 64.0564C19.5094 64.0223 19.4145 63.9133 19.3733 63.8513C19.3324 63.7899 19.2691 63.6627 19.3006 63.4954L24.4208 39.8787C25.0319 40.1099 25.6676 40.2916 26.3229 40.422L20.2414 63.7001ZM25.5762 50.9293L26.6769 46.7159L30.5988 48.563L25.5762 50.9293ZM35.1378 48.5635L39.3381 46.5854L40.5168 51.0968L35.1378 48.5635ZM46.676 63.8513C46.6347 63.9133 46.5399 64.0223 46.3696 64.0564C46.1172 64.1074 45.8699 63.9505 45.8048 63.6887L39.7239 40.4129C40.379 40.2798 41.014 40.095 41.6246 39.861L46.7487 63.4954C46.7801 63.6627 46.7168 63.79 46.676 63.8513Z" fill="white"></path>
     
    </g>
    <defs>
      <clipPath id="clip0">
        <rect width="66" height="66" fill="white"></rect>
      </clipPath>
    </defs>
  </symbol>
  
  <symbol fill="none" xmlns="http://www.w3.org/2000/svg" viewBox="0 0 80 80" id="chaise-longue">
    <g clip-path="url(#clip0)">
      <path d="M79.4686 24.0793C79.0678 23.6272 78.4916 23.3679 77.8875 23.3679H71.24C70.1771 23.3679 69.2759 24.1632 69.1439 25.2176L68.1272 33.323H20.1755C19.5271 33.323 19.0018 33.8485 19.0018 34.4967C19.0018 35.1448 19.5271 35.6703 20.1755 35.6703H67.8328L67.1712 40.9448H2.34728V35.6703H15.4809C16.1292 35.6703 16.6545 35.1448 16.6545 34.4967C16.6545 33.8485 16.1292 33.323 15.4809 33.323H2.11255C0.947673 33.323 0 34.2707 0 35.4356V50.1078C0 51.2726 0.947673 52.2203 2.11255 52.2203H6.48521V54.5196C6.48521 55.6844 7.43288 56.6321 8.59776 56.6321H17.9457C19.1106 56.6321 20.0583 55.6844 20.0583 54.5196V52.2203H40.7284C41.3767 52.2203 41.902 51.6948 41.902 51.0467C41.902 50.3985 41.3767 49.873 40.7284 49.873H2.34728V43.2921H67.3782C68.4409 43.2921 69.3421 42.497 69.4743 41.4424L71.4472 25.7152H77.6227L74.6941 49.873H45.4229C44.7746 49.873 44.2493 50.3985 44.2493 51.0467C44.2493 51.6948 44.7746 52.2203 45.4229 52.2203H57.6175V54.5196C57.6175 55.6844 58.5652 56.6321 59.73 56.6321H69.078C70.2428 56.6321 71.1905 55.6844 71.1905 54.5196V52.2203H74.902C75.9691 52.2203 76.8709 51.4215 76.9992 50.3621L79.9848 25.7346C80.0574 25.1348 79.8693 24.5315 79.4686 24.0793ZM17.7111 54.2848H8.83249V52.2203H17.711V54.2848H17.7111ZM68.8432 54.2848H59.9648V52.2203H68.8432V54.2848Z" fill="white"></path>
    </g>
    <defs>
      <clipPath id="clip0">
        <rect width="80" height="80" fill="white"></rect>
      </clipPath>
    </defs>
  </symbol>
  <symbol fill="none" xmlns="http://www.w3.org/2000/svg" viewBox="0 0 62 62" id="floor-lamp">
    <g clip-path="url(#clip0)">
      <path d="M46.6805 59.8993L36.0253 23.5521L36.0295 20.5671C36.0295 19.6626 35.2937 18.9268 34.3892 18.9268H34.105V15.5182H44.4951C45.3996 15.5182 46.1354 14.7824 46.1354 13.8779V1.64032C46.1354 0.735837 45.3996 0 44.4951 0H26.3276C25.8243 0 25.4163 0.408015 25.4163 0.911291C25.4163 1.41457 25.8243 1.82258 26.3276 1.82258H44.3128V13.6956H17.8628V1.82258H22.6823C23.1856 1.82258 23.5936 1.41457 23.5936 0.911291C23.5936 0.408015 23.1856 0 22.6823 0H17.6805C16.776 0 16.0402 0.735837 16.0402 1.64032V13.8779C16.0402 14.7824 16.776 15.5182 17.6805 15.5182H19.5047V21.1938C19.5047 21.6971 19.9127 22.1051 20.416 22.1051C20.9192 22.1051 21.3272 21.6971 21.3272 21.1938V15.5182H28.0706V18.9268H27.5534C26.6489 18.9268 25.9131 19.6626 25.9131 20.5671L25.9168 23.5404L17.8258 51.3008C17.685 51.7841 17.9625 52.2899 18.4457 52.4307C18.5309 52.4556 18.6167 52.4674 18.7011 52.4674C19.0959 52.4674 19.4596 52.209 19.5756 51.8109L27.5706 24.3796H29.7287L18.7999 60.1775H17.137L18.6009 55.1549C18.7417 54.6716 18.4642 54.1658 17.981 54.025C17.4979 53.8839 16.9919 54.1617 16.8511 54.6449L15.3193 59.9009C15.1735 60.4012 15.2691 60.9273 15.582 61.3442C15.8947 61.7611 16.373 62.0002 16.8941 62.0002H18.9348C19.6589 62.0002 20.2886 61.5355 20.5031 60.841L28.2969 35.3117V60.3599C28.2969 61.2644 29.0328 62.0002 29.9372 62.0002H32.0629C32.9674 62.0002 33.7032 61.2644 33.7032 60.3599V35.1912L41.6194 60.8434C41.833 61.5352 42.4628 62 43.1868 62H45.1061C45.6273 62 46.1055 61.7609 46.4183 61.344C46.7309 60.9271 46.8266 60.401 46.6805 59.8993ZM29.8931 15.5182H32.2823V18.9268H29.8931V15.5182ZM27.7357 20.7493H34.2068V22.5569H27.7357V20.7493ZM31.8806 60.1774H30.1195V29.346C30.1195 29.3447 30.1193 29.3435 30.1193 29.3421L31.0039 26.4445L31.8806 29.2851V60.1774ZM43.3213 60.1774L33.6633 28.881C33.6625 28.8783 33.6618 28.8758 33.6609 28.8731L32.2742 24.3795H34.3686L44.8627 60.1774H43.3213Z" fill="white"></path>
    </g>
    <defs>
      <clipPath id="clip0">
        <rect width="62" height="62" fill="white"></rect>
      </clipPath>
    </defs>
  </symbol>
  <symbol fill="none" xmlns="http://www.w3.org/2000/svg" viewBox="0 0 82 82" id="household-2">
    <g clip-path="url(#clip0)">
      <path d="M79.8379 13.7988H58.8377C57.6455 13.7988 56.6756 14.7687 56.6756 15.9609V31.3319H22.5104C21.8471 31.3319 21.3093 31.8697 21.3093 32.5331C21.3093 33.1965 21.8471 33.7343 22.5104 33.7343H56.6756V39.6455H7.83148V33.7343H17.7058C18.3691 33.7343 18.9069 33.1965 18.9069 32.5331C18.9069 31.8697 18.3691 31.3319 17.7058 31.3319H7.83148V28.386C7.83148 27.1938 6.86157 26.2239 5.66937 26.2239H2.16211C0.969906 26.2239 0 27.1938 0 28.386V66.0391C0 67.2313 0.969906 68.2012 2.16211 68.2012H62.9427C63.6061 68.2012 64.1439 67.6634 64.1439 67C64.1439 66.3366 63.6061 65.7988 62.9427 65.7988H2.40234V62.8555H57.8768H79.5977V65.7988H67.7474C67.084 65.7988 66.5462 66.3366 66.5462 67C66.5462 67.6634 67.084 68.2012 67.7474 68.2012H79.8379C81.0301 68.2012 82 67.2313 82 66.0391V15.9609C82 14.7689 81.0301 13.7988 79.8379 13.7988ZM66.4395 16.2012H72.2359V16.723C72.2359 17.8452 71.3229 18.7581 70.2006 18.7581H68.4748C67.3526 18.7581 66.4397 17.845 66.4397 16.723V16.2012H66.4395ZM64.0372 16.2012V16.723C64.0372 19.1698 66.0279 21.1604 68.4746 21.1604H70.2006C72.6475 21.1604 74.6383 19.1697 74.6383 16.723V16.2012H79.5977V26.2239H59.078V16.2012H64.0372ZM66.4395 28.6263H72.2359V29.148C72.2359 30.2703 71.3229 31.1833 70.2006 31.1833H68.4748C67.3526 31.1833 66.4397 30.2703 66.4397 29.148V28.6263H66.4395ZM59.078 28.6263H64.0372V29.148C64.0372 31.5949 66.0279 33.5857 68.4746 33.5857H70.2006C72.6475 33.5857 74.6383 31.5949 74.6383 29.148V28.6263H79.5977V39.6455H59.078V28.6263ZM32.9177 42.0478V42.5695C32.9177 43.6917 32.0047 44.6047 30.8824 44.6047H29.1564C28.0342 44.6047 27.1213 43.6917 27.1213 42.5695V42.0478H32.9177ZM2.40234 28.6263H5.42914V39.6455H2.40234V28.6263ZM2.40234 42.0478H24.7188V42.5695C24.7188 45.0163 26.7096 47.0071 29.1563 47.0071H30.8823C33.3292 47.0071 35.3199 45.0163 35.3199 42.5695V42.0478H56.6755V60.4531H2.40234V42.0478ZM59.078 60.4531V42.0478H79.5977V60.4531H59.078Z" fill="white"></path>
      <path d="M73.1394 46.8005H65.2475C64.0553 46.8005 63.0854 47.7704 63.0854 48.9626V51.7449C63.0854 52.9371 64.0553 53.907 65.2475 53.907H73.1394C74.3316 53.907 75.3015 52.9371 75.3015 51.7449V48.9626C75.3015 47.7706 74.3316 46.8005 73.1394 46.8005ZM72.8991 51.5046H65.4877V49.2029H72.8991V51.5046Z" fill="white"></path>
    </g>
    <defs>
      <clipPath id="clip0">
        <rect width="82" height="82" fill="white"></rect>
      </clipPath>
    </defs>
  </symbol>
  <symbol fill="none" xmlns="http://www.w3.org/2000/svg" viewBox="0 0 60 60" id="shelves-2">
    <path d="M48.4318 11.568C43.5084 6.64472 36.9625 3.93335 29.9999 3.93335C23.0374 3.93335 16.4914 6.64472 11.5681 11.568C6.64471 16.4914 3.93323 23.0373 3.93323 30C3.93323 36.9627 6.64471 43.5085 11.568 48.4319C16.4914 53.3552 23.0372 56.0666 29.9998 56.0666C36.9624 56.0666 43.5083 53.3552 48.4317 48.4319C53.3551 43.5085 56.0664 36.9627 56.0664 30C56.0664 23.0373 53.3552 16.4914 48.4318 11.568ZM53.1289 37.4825H35.3852V34.9504H53.8014C53.6225 35.8121 53.3967 36.6567 53.1289 37.4825ZM35.3852 33.1926V27.4155H54.1713C54.2615 28.265 54.3087 29.127 54.3087 30C54.3087 31.0821 54.2367 32.1475 54.099 33.1926H35.3852ZM52.7237 21.3678H29.3324C28.8469 21.3678 28.4535 21.7613 28.4535 22.2467C28.4535 22.7321 28.8469 23.1256 29.3324 23.1256H53.3173C53.5615 23.9525 53.7639 24.7969 53.9198 25.6577H21.792V24.6181H21.8002L21.8067 23.1256H25.8168C26.3023 23.1256 26.6957 22.7321 26.6957 22.2467C26.6957 21.7613 26.3023 21.3678 25.8168 21.3678H21.8142L21.8755 7.08921C24.4173 6.18511 27.1518 5.69116 29.9999 5.69116C40.3651 5.69116 49.2343 12.2129 52.7237 21.3678ZM20.1146 7.79386L20.0342 26.5365C20.0342 27.0219 20.4276 27.4154 20.9131 27.4154H33.6274V41.9739H8.85135C6.841 38.4373 5.69104 34.3507 5.69104 30C5.69104 20.1141 11.6234 11.5887 20.1146 7.79386ZM29.9999 54.3087C23.736 54.3087 18.0182 51.9268 13.7037 48.0218H24.6472C25.1327 48.0218 25.5261 47.6282 25.5261 47.1428C25.5261 46.6575 25.1327 46.2639 24.6472 46.2639H11.9496C11.2299 45.466 10.5628 44.62 9.95245 43.7319H33.6274V46.2639H28.1628C27.6773 46.2639 27.2839 46.6575 27.2839 47.1428C27.2839 47.6282 27.6773 48.0218 28.1628 48.0218H34.5063C34.9918 48.0218 35.3852 47.6282 35.3852 47.1428V39.2403H52.4825C48.8382 48.0745 40.1341 54.3087 29.9999 54.3087Z" fill="white"></path>
    <path d="M51.2133 8.78672C45.547 3.12059 38.0133 0 30 0C21.9867 0 14.453 3.12059 8.78672 8.78672C3.12059 14.453 0 21.9867 0 30C0 38.0133 3.12059 45.547 8.78672 51.2133C14.453 56.8794 21.9867 60 30 60C38.0133 60 45.547 56.8794 51.2133 51.2133C56.8794 45.547 60 38.0133 60 30C60 21.9867 56.8794 14.453 51.2133 8.78672ZM49.9703 49.9703C44.636 55.3045 37.5438 58.2422 30 58.2422C22.4562 58.2422 15.364 55.3045 10.0297 49.9703C4.69547 44.636 1.75781 37.5438 1.75781 30C1.75781 22.4562 4.69547 15.364 10.0297 10.0297C15.364 4.69547 22.4562 1.75781 30 1.75781C37.5438 1.75781 44.636 4.69547 49.9703 10.0297C55.3045 15.364 58.2422 22.4562 58.2422 30C58.2422 37.5438 55.3045 44.636 49.9703 49.9703Z" fill="white"></path>
  </symbol>
  <symbol fill="none" xmlns="http://www.w3.org/2000/svg" viewBox="0 0 70 85" id="sofa-1">
    <path d="M1.56626 24.7723L5.06075 24.1023V19.8631C5.06075 18.6326 5.89484 17.6315 6.92011 17.6315H45.9949C46.5653 17.6315 47.0278 18.1866 47.0278 18.8713C47.0278 19.556 46.5653 20.1111 45.9949 20.1111H35.9008V39.8792H59.7789L61.6617 25.7337C61.7559 25.0252 62.121 24.4495 62.6088 24.1293V20.1109H50.1266C49.5562 20.1109 49.0937 19.5558 49.0937 18.8711C49.0937 18.1864 49.5562 17.6313 50.1266 17.6313H62.8156C63.8408 17.6313 64.6749 18.6324 64.6749 19.8629V24.0514L68.4337 24.7721C69.4462 24.9662 70.1381 26.1126 69.9766 27.3277L67.2045 48.1543C67.0596 49.2435 66.2875 50.034 65.3684 50.034H65.1873V52.9792C65.1873 54.2097 64.3532 55.2108 63.3279 55.2108H60.7225L63.0928 65.3891C63.2508 66.0671 63.138 66.7778 62.7834 67.3386C62.4287 67.8997 61.8888 68.2214 61.3022 68.2214H59.1758C58.4096 68.2214 57.7113 67.644 57.4383 66.7847L53.7627 55.2108H28.3268C27.7562 55.2108 27.2938 54.6557 27.2938 53.971C27.2938 53.2864 27.7562 52.7313 28.3268 52.7313H63.1212V50.034H6.56077V52.7313H24.1946C24.7653 52.7313 25.2276 53.2864 25.2276 53.971C25.2276 54.6557 24.7653 55.2108 24.1946 55.2108H15.9731L12.2975 66.7847C12.0247 67.644 11.3264 68.2214 10.5602 68.2214H8.43376C7.84703 68.2214 7.30713 67.8997 6.95248 67.3388C6.59796 66.7779 6.48516 66.0673 6.64299 65.3891L9.01347 55.2108H6.35431C5.32904 55.2108 4.49495 54.2097 4.49495 52.9792V50.034H3.93715H3.92695C3.71154 50.034 3.49985 49.953 3.32273 49.7998C3.09989 49.6069 2.95017 49.3154 2.90679 48.9898L0.0234032 27.3276C-0.138157 26.1127 0.553936 24.9664 1.56626 24.7723ZM59.3178 65.7421H61.0296L58.5771 55.2111H55.9734L59.3178 65.7421ZM8.70592 65.7421H10.4179L13.7623 55.2111H11.1585L8.70592 65.7421ZM33.8348 20.1111H7.1267V23.9848C7.7447 24.2509 8.22758 24.9021 8.33831 25.7337L10.2211 39.8792H33.8348V20.1111ZM4.80802 47.5546H65.1921L67.9039 27.1818L63.6692 26.3698L61.7911 40.4793C61.6463 41.5683 60.874 42.359 59.9551 42.359H10.0449C9.12613 42.359 8.35402 41.5686 8.20871 40.4795L6.33062 26.3698L2.0961 27.1818L4.80802 47.5546Z" fill="white"></path>
  </symbol>
  <symbol fill="none" xmlns="http://www.w3.org/2000/svg" viewBox="0 0 60 60" id="stool-1">
    <g clip-path="url(#clip0)">
      <path d="M52.5653 0H18.7521C18.2659 0 17.8719 0.394061 17.8719 0.880125C17.8719 1.36619 18.2659 1.76025 18.7521 1.76025H52.3893V7.24132H39.5339C39.0479 7.24132 38.6538 7.63538 38.6538 8.12144C38.6538 8.6075 39.0479 9.00157 39.5339 9.00157H45.1755C43.1009 15.0383 40.6775 22.0372 38.356 28.6726C36.3731 23.0291 31.4146 9.25704 31.316 9.00157H36.0134C36.4996 9.00157 36.8936 8.6075 36.8936 8.12144C36.8936 7.63538 36.4996 7.24132 36.0134 7.24132H7.61062V1.76025H15.2316C15.7177 1.76025 16.1117 1.36619 16.1117 0.880125C16.1117 0.394061 15.7177 0 15.2316 0H7.4346C6.56104 0 5.85037 0.710672 5.85037 1.58422V7.41734C5.85037 8.29089 6.56104 9.00157 7.4346 9.00157H12.9642C13.7525 11.28 21.0404 32.1586 21.1714 32.5307C18.18 41.7 15.303 50.5202 14.461 53.1018C14.4389 53.1013 14.4169 53.1002 14.3947 53.1002C12.4924 53.1002 10.9448 54.6478 10.9448 56.5501C10.9448 58.4524 12.4924 60.0001 14.3947 60.0001C16.297 60.0001 17.8446 58.4524 17.8446 56.5501C17.8446 55.2905 17.1657 54.1869 16.155 53.5847C16.9306 51.2068 19.4186 43.5792 22.1332 35.2582C23.8505 40.1197 28.7179 53.3482 28.7179 53.3482C27.4489 53.8582 26.5501 55.1009 26.5501 56.5501C26.5501 58.4524 28.0977 60.0001 30 60.0001C31.9023 60.0001 33.4499 58.4524 33.4499 56.5501C33.4499 55.1079 32.5599 53.8702 31.3005 53.3555C31.3005 53.3555 36.4412 39.429 38.3555 33.9867C40.714 40.7176 43.1787 47.7918 45.2795 53.8458C44.4813 54.4782 43.9679 55.455 43.9679 56.5501C43.9679 58.4524 45.5156 60.0001 47.4179 60.0001C49.3201 60.0001 50.8677 58.4524 50.8677 56.5501C50.8677 54.6478 49.3201 53.1002 47.4179 53.1002C47.241 53.1002 47.0673 53.1137 46.8975 53.1395C46.0703 50.757 42.6987 41.053 39.2886 31.3296C42.7866 21.3509 46.2541 11.2779 47.0366 9.00168H52.5652C53.4387 9.00168 54.1494 8.29101 54.1494 7.41746V1.58422C54.1495 0.710672 53.439 0 52.5653 0V0ZM14.3947 58.2397C13.4631 58.2397 12.705 57.4817 12.705 56.55C12.705 55.6183 13.4631 54.8603 14.3947 54.8603C15.3264 54.8603 16.0844 55.6183 16.0844 56.55C16.0844 57.4817 15.3264 58.2397 14.3947 58.2397ZM49.1077 56.55C49.1077 57.4817 48.3497 58.2397 47.4181 58.2397C46.4865 58.2397 45.7284 57.4817 45.7284 56.55C45.7284 55.6183 46.4865 54.8603 47.4181 54.8603C48.3497 54.8603 49.1077 55.6183 49.1077 56.55ZM14.8266 9.00157H28.8511C27.8839 11.9583 25.0141 20.7522 22.0686 29.7805C19.6234 22.8229 17.0317 15.378 14.8266 9.00157ZM30 58.2397C29.0683 58.2397 28.3103 57.4817 28.3103 56.55C28.3103 55.6183 29.0683 54.8603 30 54.8603C30.9316 54.8603 31.6897 55.6183 31.6897 56.55C31.6898 57.4817 30.9317 58.2397 30 58.2397ZM30.0145 51.8615C28.7645 48.6564 26.0721 41.1431 23.0295 32.5106C25.8731 23.7947 28.785 14.8707 30.1155 10.7985C31.477 14.4639 34.2973 22.421 37.4245 31.331C34.2201 40.4612 31.3357 48.5241 30.0145 51.8615Z" fill="white"></path>
    </g>
    <defs>
      <clipPath id="clip0">
        <rect width="60" height="60" fill="white"></rect>
      </clipPath>
    </defs>
  </symbol>
</svg>